<svg width="574" height="220" viewBox="0 0 574 220" fill="none" xmlns="http://www.w3.org/2000/svg">
<path d="M205.555 96.25L192.147 49.1186H191.743C192.371 57.1454 192.684 63.382 192.684 67.8278V96.25H176.989V30.8122H200.577L214.254 77.2722H214.613L228.021 30.8122H251.654V96.25H235.376V67.5592C235.376 66.0674 235.391 64.4114 235.421 62.5909C235.48 60.7709 235.69 56.3099 236.048 49.208H235.645L222.416 96.25H205.555ZM327.815 63.4416C327.815 74.4521 325.109 82.8222 319.698 88.5513C314.287 94.2805 306.365 97.1451 295.931 97.1451C285.647 97.1451 277.754 94.2658 272.254 88.5064C266.783 82.7475 264.047 74.3627 264.047 63.3522C264.047 52.4608 266.768 44.1504 272.209 38.4212C277.679 32.6622 285.617 29.7827 296.021 29.7827C306.454 29.7827 314.362 32.6324 319.743 38.3317C325.124 44.031 327.815 52.4008 327.815 63.4416ZM282.702 63.4416C282.702 76.0934 287.111 82.4193 295.931 82.4193C300.415 82.4193 303.734 80.8825 305.886 77.8094C308.069 74.7358 309.16 69.9467 309.16 63.4416C309.16 56.9066 308.054 52.0877 305.841 48.9844C303.659 45.8512 300.386 44.2847 296.021 44.2847C287.142 44.2847 282.702 50.6701 282.702 63.4416ZM369.266 96.25H351.553V45.2693H335.544V30.8122H385.231V45.2693H369.266V96.25ZM395.292 96.25V30.8122H413.095V96.25H395.292ZM489.346 63.4416C489.346 74.4521 486.642 82.8222 481.228 88.5513C475.818 94.2805 467.897 97.1451 457.462 97.1451C447.178 97.1451 439.285 94.2658 433.784 88.5064C428.313 82.7475 425.578 74.3627 425.578 63.3522C425.578 52.4608 428.298 44.1504 433.74 38.4212C439.21 32.6622 447.148 29.7827 457.551 29.7827C467.984 29.7827 475.892 32.6324 481.274 38.3317C486.655 44.031 489.346 52.4008 489.346 63.4416ZM444.233 63.4416C444.233 76.0934 448.642 82.4193 457.462 82.4193C461.946 82.4193 465.266 80.8825 467.415 77.8094C469.601 74.7358 470.689 69.9467 470.689 63.4416C470.689 56.9066 469.582 52.0877 467.374 48.9844C465.188 45.8512 461.918 44.2847 457.551 44.2847C448.672 44.2847 444.233 50.6701 444.233 63.4416ZM564.297 96.25H541.066L517.119 50.1481H516.715C517.284 57.3989 517.569 62.9342 517.569 66.7539V96.25H501.873V30.8122H525.012L548.868 76.2873H549.139C548.721 69.6928 548.51 64.3963 548.51 60.3978V30.8122H564.297V96.25Z" fill="#4E48A5"/>
<path d="M294.417 130.24C286.196 130.24 279.724 132.866 275 138.118C270.276 143.37 267.915 150.561 267.915 159.692C267.915 169.032 270.142 176.282 274.596 181.445C279.051 186.607 285.419 189.188 293.7 189.188C299.201 189.188 304.253 188.487 308.857 187.084V191.113C304.522 192.634 299.111 193.395 292.623 193.395C283.416 193.395 276.166 190.426 270.874 184.488C265.583 178.55 262.937 170.255 262.937 159.602C262.937 152.948 264.193 147.084 266.704 142.012C269.245 136.939 272.877 133.03 277.601 130.285C282.354 127.51 287.87 126.122 294.148 126.122C300.546 126.122 306.271 127.316 311.323 129.703L309.485 133.821C304.701 131.434 299.679 130.24 294.417 130.24ZM324.165 192.5V127.063H328.739V188.203H359.995V192.5H324.165ZM427.142 159.692C427.142 170.076 424.541 178.296 419.339 184.354C414.137 190.382 406.962 193.395 397.814 193.395C388.696 193.395 381.536 190.382 376.334 184.354C371.132 178.296 368.532 170.046 368.532 159.602C368.532 149.188 371.147 140.997 376.379 135.029C381.641 129.032 388.816 126.033 397.904 126.033C407.052 126.033 414.212 129.047 419.384 135.074C424.556 141.072 427.142 149.278 427.142 159.692ZM373.509 159.692C373.509 169.061 375.602 176.312 379.787 181.445C383.973 186.547 389.982 189.098 397.814 189.098C405.707 189.098 411.731 186.562 415.887 181.49C420.072 176.417 422.165 169.151 422.165 159.692C422.165 150.262 420.072 143.041 415.887 138.028C411.731 132.986 405.737 130.464 397.904 130.464C390.101 130.464 384.077 133 379.832 138.073C375.617 143.146 373.509 150.352 373.509 159.692ZM491.151 127.063V169.404C491.151 176.924 488.97 182.802 484.603 187.04C480.241 191.277 474.156 193.395 466.35 193.395C458.758 193.395 452.824 191.277 448.549 187.04C444.304 182.772 442.181 176.834 442.181 169.226V127.063H446.8V169.404C446.8 175.7 448.549 180.609 452.047 184.13C455.544 187.621 460.49 189.367 466.892 189.367C473.137 189.367 477.981 187.651 481.421 184.22C484.856 180.759 486.578 175.969 486.578 169.852V127.063H491.151ZM559.508 159.155C559.508 170.135 556.624 178.446 550.852 184.086C545.084 189.695 536.607 192.5 525.426 192.5H509.73V127.063H527.446C537.907 127.063 545.86 129.793 551.302 135.253C556.771 140.714 559.508 148.681 559.508 159.155ZM554.53 159.334C554.53 149.964 552.138 142.922 547.357 138.207C542.6 133.463 535.606 131.091 526.367 131.091H514.304V188.472H525.16C544.74 188.472 554.53 178.759 554.53 159.334Z" fill="#332D4F"/>
<path d="M9.28265 30.8122H27.265C35.3668 30.8122 41.3161 32.1848 45.1128 34.93C48.9094 37.6752 50.8082 41.8229 50.8082 47.3729C50.8082 51.1628 49.6418 54.3258 47.31 56.8617C45.0082 59.3684 41.63 60.9799 37.1755 61.6958V61.9644C42.4073 62.7403 46.2488 64.3963 48.7005 66.9327C51.1815 69.4393 52.4223 72.9456 52.4223 77.451C52.4223 83.4785 50.4193 88.1187 46.4132 91.371C42.4073 94.6238 36.7271 96.25 29.3727 96.25H9.28265V30.8122ZM13.8567 59.9504H28.2964C34.455 59.9504 38.9244 58.9357 41.7047 56.9066C44.5149 54.8478 45.92 51.6399 45.92 47.2835C45.92 42.927 44.3355 39.764 41.1666 37.7946C38.0275 35.8252 33.3338 34.8405 27.0857 34.8405H13.8567V59.9504ZM13.8567 63.9787V92.2217H29.283C41.4207 92.2217 47.4896 87.2983 47.4896 77.451C47.4896 68.4695 41.0918 63.9787 28.2964 63.9787H13.8567ZM104.367 96.25H63.3356V92.3111L80.7797 74.1391C85.6826 69.0662 89.1206 65.1874 91.0938 62.5015C93.067 59.8161 94.5167 57.2499 95.4438 54.8029C96.3705 52.3563 96.8338 49.7901 96.8338 47.1043C96.8338 43.1955 95.5485 40.0176 92.9775 37.5708C90.4064 35.1239 87.0726 33.9005 82.977 33.9005C77.5061 33.9005 72.2744 35.8849 67.282 39.8535L64.8602 36.7651C70.3311 32.1698 76.3999 29.8722 83.067 29.8722C88.7767 29.8722 93.2612 31.394 96.5197 34.4376C99.8085 37.4812 101.453 41.6737 101.453 47.0149C101.453 51.3416 100.347 55.5339 98.1343 59.5925C95.9517 63.6208 91.9456 68.6038 86.1161 74.5419L69.2997 91.7739V91.9531H104.367V96.25ZM120.707 30.8122H138.689C146.791 30.8122 152.74 32.1848 156.537 34.93C160.334 37.6752 162.232 41.8229 162.232 47.3729C162.232 51.1628 161.066 54.3258 158.734 56.8617C156.432 59.3684 153.054 60.9799 148.599 61.6958V61.9644C153.832 62.7403 157.673 64.3963 160.124 66.9327C162.606 69.4393 163.847 72.9456 163.847 77.451C163.847 83.4785 161.844 88.1187 157.838 91.371C153.832 94.6238 148.151 96.25 140.797 96.25H120.707V30.8122ZM125.281 59.9504H139.721C145.879 59.9504 150.349 58.9357 153.129 56.9066C155.939 54.8478 157.344 51.6399 157.344 47.2835C157.344 42.927 155.76 39.764 152.591 37.7946C149.452 35.8252 144.758 34.8405 138.51 34.8405H125.281V59.9504ZM125.281 63.9787V92.2217H140.707C152.845 92.2217 158.914 87.2983 158.914 77.451C158.914 68.4695 152.516 63.9787 139.721 63.9787H125.281Z" fill="#332D4F"/>
<path d="M211.232 192.5C223.912 192.5 234.192 182.24 234.192 169.583C234.192 156.927 223.912 146.667 211.232 146.667C198.552 146.667 188.272 156.927 188.272 169.583C188.272 182.24 198.552 192.5 211.232 192.5Z" fill="url(#paint0_linear_54815_134)"/>
<path fill-rule="evenodd" clip-rule="evenodd" d="M216.538 152.535C219.868 152.535 223.123 153.52 225.892 155.367C228.661 157.214 230.819 159.839 232.093 162.909C233.367 165.98 233.701 169.359 233.051 172.619C232.401 175.878 230.797 178.873 228.443 181.223C226.088 183.573 223.088 185.174 219.822 185.822C216.556 186.471 213.17 186.138 210.094 184.866C207.017 183.594 204.388 181.44 202.538 178.676C200.687 175.913 199.7 172.664 199.7 169.34C199.7 167.133 200.136 164.948 200.982 162.909C201.828 160.869 203.068 159.017 204.632 157.456C206.196 155.896 208.052 154.658 210.095 153.813C212.138 152.969 214.327 152.535 216.538 152.535Z" fill="url(#paint1_linear_54815_134)"/>
<path d="M221.059 180.035C226.875 180.035 231.591 175.329 231.591 169.524C231.591 163.718 226.875 159.012 221.059 159.012C215.243 159.012 210.528 163.718 210.528 169.524C210.528 175.329 215.243 180.035 221.059 180.035Z" fill="url(#paint2_linear_54815_134)"/>
<defs>
<linearGradient id="paint0_linear_54815_134" x1="188.272" y1="169.583" x2="234.192" y2="169.583" gradientUnits="userSpaceOnUse">
<stop stop-color="#6F5896"/>
<stop offset="0.697917" stop-color="#313D82"/>
</linearGradient>
<linearGradient id="paint1_linear_54815_134" x1="199.7" y1="169.34" x2="233.374" y2="169.34" gradientUnits="userSpaceOnUse">
<stop stop-color="#6F5896"/>
<stop offset="0.697917" stop-color="#313D82"/>
</linearGradient>
<linearGradient id="paint2_linear_54815_134" x1="210.528" y1="169.524" x2="231.591" y2="169.524" gradientUnits="userSpaceOnUse">
<stop stop-color="#6F5896"/>
<stop offset="0.697917" stop-color="#313D82"/>
</linearGradient>
</defs>
</svg>
